<svg width="40" height="32" viewBox="0 0 40 32" fill="none" xmlns="http://www.w3.org/2000/svg">
<path d="M7.15989 23.9748C7.39315 23.7415 7.71389 23.6055 8.05407 23.6055H38.9034C39.4672 23.6055 39.749 24.2858 39.3505 24.6843L33.2565 30.7784C33.0232 31.0117 32.7025 31.1477 32.3623 31.1477H1.51291C0.949189 31.1477 0.667327 30.4674 1.06582 30.0689L7.15989 23.9748Z" fill="#4D62E5"/>
<path d="M7.15989 1.22188C7.40287 0.988611 7.72361 0.852539 8.05407 0.852539H38.9034C39.4672 0.852539 39.749 1.5329 39.3505 1.93139L33.2565 8.02546C33.0232 8.25872 32.7025 8.39479 32.3623 8.39479H1.51291C0.949189 8.39479 0.667327 7.71444 1.06582 7.31594L7.15989 1.22188Z" fill="#4D62E5"/>
<path d="M33.2565 12.5256C33.0232 12.2923 32.7025 12.1562 32.3623 12.1562H1.51291C0.949189 12.1562 0.667327 12.8366 1.06582 13.2351L7.15989 19.3292C7.39315 19.5624 7.71389 19.6985 8.05407 19.6985H38.9034C39.4672 19.6985 39.749 19.0181 39.3505 18.6197L33.2565 12.5256Z" fill="#4D62E5"/>
</svg>
