<svg width="44" height="44" viewBox="0 0 44 44" fill="none" xmlns="http://www.w3.org/2000/svg">
<path d="M13.4568 18.3433L21.7517 10.0483L30.0505 18.3468L34.8769 13.5204L21.7517 0.395508L8.63072 13.5165L13.4569 18.3429L13.4568 18.3433ZM0.395966 21.7513L5.22253 16.924L10.0487 21.7503L5.22218 26.5769L0.395966 21.7513ZM13.4568 25.1599L21.7517 33.4543L30.0503 25.1559L34.8793 29.9798L34.8769 29.9823L21.7517 43.1071L8.63072 29.9861L8.62389 29.9793L13.4573 25.1593L13.4568 25.1599ZM33.4546 21.7533L38.2812 16.9268L43.1074 21.753L38.281 26.5796L33.4546 21.7533Z" fill="#4D62E5"/>
<path d="M26.6466 21.749H26.6486L21.7515 16.8516L18.1318 20.4703L17.716 20.8863L16.8583 21.7441L16.8515 21.7508L16.8583 21.7578L21.7515 26.6517L26.649 21.7542L26.6514 21.7514L26.6469 21.749" fill="#4D62E5"/>
</svg>
