<svg width="30" height="44" viewBox="0 0 30 44" fill="none" xmlns="http://www.w3.org/2000/svg">
<path fill-rule="evenodd" clip-rule="evenodd" d="M15.9081 0.734724C16.4413 1.29612 28.8489 19.0384 28.9809 19.4281C29.144 19.9098 28.9274 20.5334 28.4293 21.0154C28.2104 21.2273 25.1943 23.1487 21.7269 25.2851C16.7287 28.3648 15.3351 29.1696 14.9999 29.1696C14.3832 29.1696 1.81653 21.413 1.3224 20.7273C0.710718 19.8786 0.802765 19.5571 2.25126 17.4828C9.89091 6.54189 14.1214 0.608448 14.3959 0.449842C14.8538 0.18512 15.5023 0.307339 15.9081 0.734724ZM8.92877 28.5063C12.1804 30.5098 14.9279 32.1457 15.0344 32.1417C15.1409 32.1376 17.8614 30.5015 21.0798 28.5058C24.2983 26.5101 27.0772 24.8397 27.2553 24.7937C28.0721 24.5827 28.9935 25.598 28.7441 26.4341C28.6414 26.778 16.9544 42.1357 15.9873 43.1974C15.5685 43.6572 15.0777 43.7973 14.5496 43.608C14.2667 43.5065 12.7575 41.629 8.15826 35.6567C0.550527 25.7782 1.22998 26.7121 1.22998 26.1342C1.22998 25.3031 1.89823 24.6747 2.64706 24.8012C2.85038 24.8355 5.67714 26.5029 8.92877 28.5063Z" fill="white"/>
</svg>
