<svg width="12" height="7" viewBox="0 0 12 7" fill="none" xmlns="http://www.w3.org/2000/svg">
<path fill-rule="evenodd" clip-rule="evenodd" d="M0.641466 0.0200687C0.398579 0.078617 0.178254 0.26699 0.0680792 0.510309C0.0126751 0.632688 0.00293236 0.685137 0.00342537 0.858524C0.00450528 1.24255 -0.220844 0.983185 2.80324 4.08103C4.62712 5.94937 5.52642 6.85439 5.59925 6.89479C5.76929 6.98909 5.9701 7.02223 6.14676 6.98513C6.22748 6.96817 6.34181 6.92752 6.40083 6.89479C6.47365 6.85439 7.37296 5.94937 9.19683 4.08103C12.2212 0.982921 11.9958 1.24238 11.9964 0.858524C11.9967 0.684681 11.9869 0.632184 11.9299 0.504689C11.7329 0.0635839 11.2077 -0.123012 10.7775 0.0952112C10.7163 0.126214 9.8668 0.977398 8.3418 2.53565L6.00004 4.92849L3.65827 2.53565C2.12731 0.971298 1.28399 0.126407 1.2226 0.0953794C1.0439 0.00508346 0.822539 -0.0235903 0.641466 0.0200687Z" fill="white"/>
</svg>
