<svg width="14" height="15" viewBox="0 0 14 15" fill="none" xmlns="http://www.w3.org/2000/svg">
<path d="M8.08525 13.6788C8.20944 13.6179 8.31411 13.5234 8.38741 13.4061C8.46071 13.2888 8.49971 13.1533 8.5 13.015V9.02501C8.5 8.82851 8.57875 8.63951 8.71975 8.50001L13.3105 3.95951C13.5917 3.68126 13.75 3.30326 13.75 2.90951V0.992514C13.7496 0.894486 13.7299 0.797498 13.692 0.707102C13.654 0.616706 13.5987 0.534677 13.529 0.465709C13.4593 0.396742 13.3768 0.342191 13.286 0.305179C13.1952 0.268167 13.098 0.249421 13 0.250014H1C0.58525 0.250014 0.25 0.581514 0.25 0.992514V2.90951C0.25 3.30326 0.40825 3.68126 0.6895 3.95951L5.28025 8.50001C5.34981 8.56862 5.40505 8.65036 5.44277 8.74048C5.48049 8.8306 5.49995 8.92731 5.5 9.02501V13.7575C5.5 14.3088 6.0865 14.6673 6.58525 14.4205L8.08525 13.6788Z" fill="white"/>
</svg>
