<svg width="9" height="13" viewBox="0 0 9 13" fill="none" xmlns="http://www.w3.org/2000/svg">
<path fill-rule="evenodd" clip-rule="evenodd" d="M4.75803 0.465101C4.90934 0.624416 8.43044 5.65938 8.46789 5.76998C8.51419 5.90666 8.45271 6.08365 8.31137 6.22044C8.24923 6.28056 7.39333 6.82582 6.40934 7.4321C4.99092 8.30606 4.59542 8.53446 4.50031 8.53446C4.32529 8.53446 0.759082 6.33327 0.618857 6.13866C0.445271 5.89781 0.471392 5.80657 0.882453 5.21792C3.05046 2.11308 4.25101 0.429266 4.32889 0.384256C4.45884 0.309132 4.64288 0.343816 4.75803 0.465101ZM2.77742 8.34622C3.70018 8.91479 4.47989 9.37903 4.5101 9.37788C4.54031 9.37673 5.31236 8.91242 6.22568 8.34607C7.13903 7.77973 7.92765 7.30571 7.97818 7.29265C8.20999 7.23278 8.47146 7.5209 8.40068 7.75818C8.37155 7.85575 5.05495 12.214 4.78052 12.5153C4.66166 12.6458 4.52237 12.6856 4.37253 12.6318C4.29224 12.603 3.86394 12.0702 2.55876 10.3754C0.399811 7.57202 0.59263 7.83704 0.59263 7.67305C0.59263 7.43721 0.782267 7.25886 0.994773 7.29477C1.05247 7.30452 1.85466 7.77768 2.77742 8.34622Z" fill="#4D62E5"/>
</svg>
