<svg width="16" height="16" viewBox="0 0 16 16" fill="none" xmlns="http://www.w3.org/2000/svg">
<path d="M15.9241 6.383C15.9998 6.20022 16.0196 5.9991 15.981 5.80508C15.9424 5.61105 15.847 5.43284 15.7071 5.293L10.7071 0.292999L9.29312 1.707L12.5861 5H0.000115853V7H15.0001C15.1979 7.00005 15.3912 6.94146 15.5557 6.83163C15.7202 6.72181 15.8484 6.56569 15.9241 6.383ZM0.0761161 9.617C0.000411265 9.79977 -0.0193799 10.0009 0.019247 10.1949C0.057874 10.3889 0.153183 10.5672 0.293116 10.707L5.29312 15.707L6.70712 14.293L3.41412 11H16.0001V9H1.00012C0.80232 8.99982 0.608922 9.05836 0.444428 9.1682C0.279935 9.27804 0.15175 9.43423 0.0761161 9.617Z" fill="#4D62E5"/>
</svg>
