<svg width="20" height="20" viewBox="0 0 20 20" fill="none" xmlns="http://www.w3.org/2000/svg">
<path d="M19.1667 9.58333C19.5679 9.98456 19.7685 10.4552 19.7685 10.9954C19.7685 11.5355 19.5679 11.9907 19.1667 12.3611L12.2685 19.3056C11.8673 19.6759 11.3966 19.8611 10.8565 19.8611C10.3164 19.8611 9.86111 19.6759 9.49074 19.3056L0.601852 10.4167C0.200617 10.0154 0 9.55247 0 9.02777V2.08333C0 1.55864 0.192901 1.10339 0.578704 0.717589C0.964506 0.331787 1.43519 0.138885 1.99074 0.138885H8.88889C9.44444 0.138885 9.90741 0.324071 10.2778 0.694441L19.1667 9.58333ZM3.44907 5.04629C3.86574 5.04629 4.22068 4.9074 4.51389 4.62963C4.8071 4.35185 4.9537 4.00463 4.9537 3.58796C4.9537 3.17129 4.8071 2.81635 4.51389 2.52314C4.22068 2.22993 3.86574 2.08333 3.44907 2.08333C3.03241 2.08333 2.68519 2.22993 2.40741 2.52314C2.12963 2.81635 1.99074 3.17129 1.99074 3.58796C1.99074 4.00463 2.12963 4.35185 2.40741 4.62963C2.68519 4.9074 3.03241 5.04629 3.44907 5.04629Z" fill="white"/>
</svg>
