<svg width="14" height="16" viewBox="0 0 14 16" fill="none" xmlns="http://www.w3.org/2000/svg">
<path d="M12.6619 7.24763C12.3207 6.47957 11.8246 5.79019 11.2047 5.22263L10.6932 4.7533C10.6758 4.7378 10.6549 4.7268 10.6323 4.72127C10.6097 4.71573 10.586 4.71584 10.5635 4.72156C10.5409 4.72729 10.5201 4.73847 10.5029 4.75412C10.4856 4.76976 10.4725 4.7894 10.4646 4.81131L10.2361 5.46697C10.0938 5.8783 9.83184 6.29841 9.46094 6.7115C9.43633 6.73787 9.4082 6.7449 9.38887 6.74666C9.36953 6.74841 9.33965 6.7449 9.31328 6.72029C9.28867 6.69919 9.27637 6.66755 9.27812 6.63591C9.34316 5.57771 9.02676 4.38416 8.33418 3.08514C7.76113 2.00584 6.96484 1.16385 5.96992 0.576742L5.24395 0.149595C5.14902 0.0933447 5.02773 0.167173 5.03301 0.277915L5.07168 1.12166C5.09805 1.69823 5.03125 2.20799 4.87305 2.63162C4.67969 3.15018 4.40195 3.63182 4.04688 4.06424C3.79977 4.36476 3.51969 4.63658 3.21191 4.87459C2.47065 5.44441 1.86791 6.17455 1.44883 7.01033C1.03077 7.8534 0.81301 8.7816 0.8125 9.72263C0.8125 10.5523 0.975977 11.3556 1.29941 12.1132C1.61172 12.8427 2.06241 13.5047 2.62656 14.0627C3.19609 14.6252 3.85703 15.0681 4.59355 15.3757C5.35645 15.6957 6.16504 15.8574 7 15.8574C7.83496 15.8574 8.64356 15.6957 9.40645 15.3775C10.1412 15.0717 10.8093 14.6257 11.3734 14.0644C11.943 13.5019 12.3895 12.8445 12.7006 12.115C13.0235 11.3595 13.1892 10.5461 13.1875 9.72438C13.1875 8.86657 13.0117 8.03337 12.6619 7.24763Z" fill="#4D62E5"/>
</svg>
