<svg width="26" height="26" viewBox="0 0 26 26" fill="none" xmlns="http://www.w3.org/2000/svg">
<path d="M13 26C20.1797 26 26 20.1797 26 13C26 5.8203 20.1797 0 13 0C5.8203 0 0 5.8203 0 13C0 20.1797 5.8203 26 13 26Z" fill="#F0F0F0"/>
<path d="M2.68734 5.08533C1.66618 6.41392 0.896186 7.94523 0.447838 9.60877H7.21078L2.68734 5.08533Z" fill="#0052B4"/>
<path d="M25.5522 9.60884C25.1038 7.94535 24.3338 6.41404 23.3126 5.08545L18.7893 9.60884H25.5522Z" fill="#0052B4"/>
<path d="M0.447838 16.3914C0.896236 18.0548 1.66623 19.5862 2.68734 20.9147L7.21063 16.3914H0.447838Z" fill="#0052B4"/>
<path d="M20.9147 2.68743C19.5861 1.66627 18.0548 0.896274 16.3913 0.447876V7.21077L20.9147 2.68743Z" fill="#0052B4"/>
<path d="M5.08533 23.3126C6.41392 24.3338 7.94523 25.1038 9.60872 25.5522V18.7893L5.08533 23.3126Z" fill="#0052B4"/>
<path d="M9.60867 0.447876C7.94518 0.896274 6.41387 1.66627 5.08533 2.68738L9.60867 7.21072V0.447876Z" fill="#0052B4"/>
<path d="M16.3913 25.5522C18.0548 25.1038 19.5861 24.3338 20.9147 23.3126L16.3913 18.7893V25.5522Z" fill="#0052B4"/>
<path d="M18.7893 16.3914L23.3126 20.9147C24.3338 19.5862 25.1038 18.0548 25.5522 16.3914H18.7893Z" fill="#0052B4"/>
<path d="M25.89 11.3044H14.6957H14.6957V0.110043C14.1406 0.0377813 13.5747 0 13 0C12.4252 0 11.8594 0.0377813 11.3044 0.110043V11.3043V11.3043H0.110043C0.0377813 11.8594 0 12.4253 0 13C0 13.5748 0.0377813 14.1406 0.110043 14.6956H11.3043H11.3043V25.89C11.8594 25.9622 12.4252 26 13 26C13.5747 26 14.1406 25.9623 14.6956 25.89V14.6957V14.6957H25.89C25.9622 14.1406 26 13.5748 26 13C26 12.4253 25.9622 11.8594 25.89 11.3044Z" fill="#D80027"/>
<path d="M16.3913 16.3914L22.1924 22.1925C22.4592 21.9258 22.7137 21.6469 22.9565 21.3579L17.99 16.3914H16.3913V16.3914Z" fill="#D80027"/>
<path d="M9.60867 16.3914H9.60857L3.80757 22.1924C4.07427 22.4592 4.35311 22.7137 4.64216 22.9565L9.60867 17.9899V16.3914Z" fill="#D80027"/>
<path d="M9.60868 9.60882V9.60871L3.80763 3.80762C3.54082 4.07432 3.28631 4.35316 3.04347 4.64221L8.01003 9.60877H9.60868V9.60882Z" fill="#D80027"/>
<path d="M16.3913 9.60884L22.1924 3.80769C21.9257 3.54088 21.6469 3.28636 21.3578 3.04358L16.3913 8.01014V9.60884Z" fill="#D80027"/>
</svg>
