<svg width="9" height="15" viewBox="0 0 9 15" fill="none" xmlns="http://www.w3.org/2000/svg">
<path fill-rule="evenodd" clip-rule="evenodd" d="M4.782 0.890628C4.94772 1.06512 8.80416 6.5796 8.84518 6.70074C8.89589 6.85044 8.82856 7.04427 8.67375 7.19409C8.60569 7.25994 7.66828 7.85713 6.59057 8.52115C5.03707 9.47835 4.60391 9.7285 4.49973 9.7285C4.30804 9.7285 0.4022 7.31767 0.248619 7.10452C0.0585015 6.84074 0.0871109 6.74081 0.53732 6.0961C2.9118 2.69556 4.2267 0.85138 4.31199 0.802084C4.45431 0.719805 4.65588 0.757792 4.782 0.890628ZM2.61276 9.52233C3.62341 10.1451 4.47737 10.6535 4.51046 10.6522C4.54355 10.651 5.38912 10.1425 6.38942 9.52217C7.38976 8.90189 8.25349 8.38272 8.30883 8.36842C8.56272 8.30285 8.84908 8.61841 8.77157 8.87829C8.73966 8.98515 5.1072 13.7585 4.80663 14.0885C4.67645 14.2314 4.5239 14.275 4.35979 14.2161C4.27185 14.1846 3.80276 13.601 2.37328 11.7448C0.00871257 8.6744 0.219895 8.96466 0.219895 8.78505C0.219895 8.52675 0.427592 8.33142 0.660338 8.37074C0.723531 8.38142 1.60212 8.89964 2.61276 9.52233Z" fill="#4D62E5"/>
</svg>
