<svg width="23" height="20" viewBox="0 0 23 20" fill="none" xmlns="http://www.w3.org/2000/svg">
<path fill-rule="evenodd" clip-rule="evenodd" d="M7.1064 0.632897C7.45417 0.646896 7.81871 0.679791 8.05825 0.732593C9.43117 1.03529 10.5248 1.70509 11.5002 2.82326C12.4944 1.6835 13.6079 1.01293 15.0297 0.711797C15.3282 0.648597 15.7594 0.624397 16.1747 0.628418C16.5927 0.632464 17.0353 0.665537 17.3612 0.732253C17.3612 0.732254 17.3612 0.732251 17.3612 0.732253C18.5969 0.985203 19.5517 1.48515 20.4339 2.34274C21.3145 3.19882 21.8498 4.11529 22.1576 5.29238C22.6916 7.33454 22.298 9.34412 21.0198 11.2106C20.2093 12.394 19.1731 13.4659 17.2987 15.0823C16.7078 15.5918 15.5075 16.5923 14.4351 17.4762C13.8984 17.9186 13.3925 18.3328 13.0094 18.643C12.818 18.7979 12.6563 18.9277 12.5365 19.0222C12.4767 19.0693 12.426 19.1087 12.3866 19.1385C12.3572 19.1608 12.3104 19.1962 12.2724 19.2178C12.1746 19.2735 12.0728 19.3247 11.9287 19.3511C11.8069 19.3733 11.6671 19.375 11.5003 19.375C11.3334 19.375 11.1935 19.3733 11.0717 19.351C10.9275 19.3246 10.8257 19.2733 10.7279 19.2175C10.6901 19.196 10.6434 19.1607 10.614 19.1385C10.5748 19.1087 10.5242 19.0694 10.4645 19.0223C10.345 18.928 10.1836 18.7986 9.99257 18.6439C9.61016 18.3343 9.10502 17.9208 8.56887 17.4789C7.49744 16.5959 6.29712 15.5955 5.70195 15.0827C3.83251 13.4717 2.79228 12.3955 1.98076 11.2106C0.702474 9.34412 0.308919 7.33454 0.842952 5.29238C1.15075 4.11529 1.68598 3.19882 2.56663 2.34273C3.55681 1.38013 4.73087 0.822819 6.12483 0.653717C6.38412 0.622277 6.75679 0.618824 7.1064 0.632897ZM11.9188 3.51561L11.5003 4.02906L11.0817 3.51561C11.0817 3.5156 11.0817 3.51561 11.0817 3.51561C10.1526 2.37596 9.15354 1.74343 7.88494 1.46373M11.9188 3.51561C12.8636 2.35679 13.8775 1.72371 15.1966 1.44434C15.4093 1.39929 15.7715 1.37455 16.1669 1.37838C16.5596 1.38218 16.9449 1.41374 17.1996 1.4659C18.2888 1.68884 19.1074 2.11818 19.8817 2.87092C20.6634 3.63079 21.1294 4.42788 21.4034 5.47575C21.8797 7.29719 21.5386 9.09199 20.3707 10.7973C19.6148 11.901 18.6364 12.9226 16.7802 14.5232C16.1965 15.0266 15.0021 16.0222 13.9297 16.9061C13.394 17.3477 12.89 17.7604 12.5093 18.0686C12.3188 18.2228 12.1601 18.3501 12.044 18.4416C11.9859 18.4875 11.9398 18.5233 11.9063 18.5486C11.8813 18.5676 11.87 18.5755 11.8681 18.577C11.8106 18.6093 11.7985 18.6115 11.7848 18.614L11.7836 18.6142C11.7464 18.621 11.6814 18.625 11.5003 18.625C11.319 18.625 11.2541 18.621 11.2169 18.6142L11.2157 18.614C11.2015 18.6114 11.189 18.6091 11.1237 18.5719C11.1294 18.5752 11.1328 18.5773 11.1329 18.5772C11.133 18.577 11.1222 18.5697 11.0944 18.5486C11.061 18.5233 11.015 18.4876 10.957 18.4418C10.8412 18.3505 10.6828 18.2234 10.4927 18.0695C10.1127 17.7618 9.60943 17.3499 9.07419 16.9088C8.00284 16.0258 6.80833 15.0302 6.22021 14.5234C4.36929 12.9284 3.38678 11.9026 2.62977 10.7973C1.46187 9.09198 1.12081 7.29719 1.59712 5.47576C1.87114 4.42788 2.33715 3.63079 3.11882 2.87092C3.98669 2.02722 5.00057 1.54601 6.22191 1.39785C6.41767 1.37412 6.74018 1.36881 7.07396 1.38224C7.40956 1.39575 7.71663 1.42664 7.88494 1.46373" fill="white"/>
</svg>
