<svg width="21" height="12" viewBox="0 0 21 12" fill="none" xmlns="http://www.w3.org/2000/svg">
<path fill-rule="evenodd" clip-rule="evenodd" d="M1.12256 0.0344035C0.697514 0.134772 0.311944 0.457697 0.119139 0.874815C0.0221813 1.08461 0.00513164 1.17452 0.00599439 1.47176C0.00788424 2.13008 -0.386477 1.68546 4.90567 6.99606C8.09745 10.1989 9.67124 11.7504 9.79869 11.8196C10.0963 11.9813 10.4477 12.0381 10.7568 11.9745C10.8981 11.9454 11.0982 11.8757 11.2014 11.8196C11.3289 11.7504 12.9027 10.1989 16.0945 6.99606C21.3871 1.68501 20.9926 2.12979 20.9938 1.47176C20.9943 1.17374 20.977 1.08374 20.8774 0.865182C20.5325 0.109001 19.6135 -0.210878 18.8606 0.163219C18.7536 0.216368 17.2669 1.67554 14.5982 4.34683L10.5001 8.44885L6.40197 4.34683C3.72279 1.66508 2.24698 0.216697 2.13955 0.163508C1.82682 0.00871451 1.43944 -0.0404406 1.12256 0.0344035Z" fill="#4D62E5"/>
</svg>
