<svg width="14" height="14" viewBox="0 0 14 14" fill="none" xmlns="http://www.w3.org/2000/svg">
<path fill-rule="evenodd" clip-rule="evenodd" d="M5.24089 0.029551C4.2279 0.12976 3.21894 0.514013 2.34891 1.13097C2.02651 1.3596 1.43422 1.92372 1.19367 2.2313C0.446578 3.18654 0.0471726 4.26988 0.00421816 5.45766C-0.021356 6.16539 0.0685505 6.7748 0.296053 7.43538C0.579921 8.25966 1.06759 9.01905 1.71327 9.64222C2.65985 10.5558 3.85608 11.117 5.1924 11.2743C5.55214 11.3167 6.47168 11.2937 6.81446 11.2338C7.61157 11.0945 8.32082 10.8331 8.96233 10.4423L9.21053 10.2911L10.9499 12.0348C11.9066 12.9939 12.7291 13.8108 12.7777 13.8503C13.0821 14.0976 13.6118 14.0294 13.8442 13.7131C13.961 13.5542 13.9972 13.4501 13.9997 13.2658C14.0039 12.9687 13.9838 12.9453 12.1458 11.1041C11.2263 10.1831 10.4448 9.39602 10.4092 9.35511L10.3443 9.28071L10.4961 9.09315C11.5252 7.82188 11.924 6.1496 11.5882 4.51359C11.4204 3.69613 10.9811 2.79742 10.421 2.12551C9.16635 0.62068 7.22127 -0.166352 5.24089 0.029551ZM6.40397 1.51553C8.24307 1.75188 9.69967 3.05125 10.0899 4.80368C10.1675 5.15189 10.1964 5.84835 10.1472 6.18047C10.0059 7.13254 9.59059 7.94576 8.91027 8.60237C8.25433 9.23548 7.44072 9.637 6.51778 9.78304C6.20814 9.83205 5.52801 9.83227 5.19598 9.78348C3.99955 9.60763 2.91585 8.93739 2.25004 7.96152C2.0121 7.61276 1.88415 7.36024 1.75253 6.97971C1.60935 6.56576 1.55239 6.25572 1.53413 5.79064C1.4425 3.45866 3.39155 1.49908 5.82212 1.47949C5.97806 1.47823 6.23989 1.49443 6.40397 1.51553Z" fill="#4D62E5"/>
</svg>
