<svg width="18" height="14" viewBox="0 0 18 14" fill="none" xmlns="http://www.w3.org/2000/svg">
<path d="M17.0295 1.64214C16.4033 1.91964 15.7305 2.10714 15.0233 2.19189C15.753 1.75523 16.299 1.06799 16.5593 0.258389C15.8736 0.665631 15.1233 0.952285 14.3408 1.10589C13.8145 0.544038 13.1175 0.171633 12.358 0.0464943C11.5984 -0.0786448 10.8188 0.0504824 10.1402 0.413828C9.46153 0.777174 8.92183 1.35441 8.60487 2.05592C8.2879 2.75742 8.2114 3.54395 8.38725 4.29339C6.99802 4.22364 5.63897 3.86255 4.39832 3.23357C3.15767 2.60458 2.06313 1.72176 1.18575 0.642389C0.88575 1.15989 0.71325 1.75989 0.71325 2.39889C0.712915 2.97413 0.854575 3.54057 1.12566 4.04794C1.39674 4.55531 1.78887 4.98792 2.26725 5.30739C1.71246 5.28973 1.1699 5.13983 0.68475 4.87014V4.91514C0.684694 5.72194 0.963775 6.50392 1.47464 7.12839C1.9855 7.75285 2.69668 8.18134 3.4875 8.34114C2.97284 8.48042 2.43325 8.50094 1.9095 8.40114C2.13262 9.09535 2.56725 9.70241 3.15253 10.1373C3.7378 10.5723 4.44444 10.8133 5.1735 10.8266C3.93588 11.7982 2.40742 12.3252 0.834 12.3229C0.555286 12.323 0.276807 12.3067 0 12.2741C1.59711 13.301 3.45626 13.846 5.355 13.8439C11.7825 13.8439 15.2963 8.52039 15.2963 3.90339C15.2963 3.75339 15.2925 3.60189 15.2858 3.45189C15.9692 2.95762 16.5592 2.34556 17.028 1.64439L17.0295 1.64214Z" fill="#4D62E5"/>
</svg>
