<svg width="39" height="39" viewBox="0 0 39 39" fill="none" xmlns="http://www.w3.org/2000/svg">
<path fill-rule="evenodd" clip-rule="evenodd" d="M19.5 39C30.2696 39 39 30.2696 39 19.5C39 8.73045 30.2696 0 19.5 0C8.73045 0 0 8.73045 0 19.5C0 30.2696 8.73045 39 19.5 39ZM10.4785 13.379C10.5277 13.5074 10.5461 13.6456 10.5323 13.7824V23.7933C10.5624 23.9712 10.5504 24.1537 10.4973 24.3262C10.4442 24.4987 10.3515 24.6564 10.2267 24.7867L7.86666 27.6726V28.0525H14.5612V27.6726L12.2001 24.7867C11.9461 24.5237 11.8258 24.1563 11.8742 23.7933V15.1354L17.7517 28.0525H18.4327L23.4809 15.1354V25.4318C23.4809 25.706 23.4809 25.7588 23.3022 25.9386L21.4861 27.7142V28.0952H30.3013V27.7131L28.5481 25.9802C28.4721 25.9215 28.4134 25.8432 28.3784 25.7537C28.3433 25.6643 28.3333 25.567 28.3492 25.4722V12.735C28.3333 12.6402 28.3433 12.5429 28.3784 12.4535C28.4134 12.364 28.4721 12.2857 28.5481 12.227L30.3428 10.4952V10.1143H24.1304L19.7026 21.2456L14.6657 10.1143H8.14986V10.4952L10.2491 13.0429C10.3508 13.1355 10.4293 13.2506 10.4785 13.379Z" fill="#3D07C8"/>
</svg>
